<?xml version="1.0" encoding="utf-8"?>
<!-- Generator: Adobe Illustrator 25.2.3, SVG Export Plug-In . SVG Version: 6.00 Build 0)  -->
<svg version="1.1" id="Layer_1" xmlns="http://www.w3.org/2000/svg" xmlns:xlink="http://www.w3.org/1999/xlink" x="0px" y="0px"
	 viewBox="0 0 24 24" style="enable-background:new 0 0 24 24;" xml:space="preserve">
<path d="M6.1,10.9c-0.6,0-1.1-0.2-1.6-0.4c0,1.7,1.1,3.2,2.9,3.5c-0.5,0.1-1.1,0.2-1.6,0.1c0.5,1.4,1.8,2.4,3.3,2.5
	c-1.5,1.2-3.4,1.7-5.3,1.5c1.6,1,3.5,1.6,5.5,1.6c6.6,0,10.4-5.6,10.1-10.6c0.7-0.5,1.3-1.1,1.8-1.8c-0.6,0.3-1.3,0.5-2,0.6
	c0.7-0.4,1.3-1.1,1.6-2c-0.7,0.4-1.5,0.7-2.3,0.9c-0.6-0.7-1.6-1.1-2.6-1.1c-2.3,0-4,2.1-3.5,4.4C9.5,9.7,6.9,8.3,5.1,6.2
	C5.1,6.3,5,6.4,4.9,6.4C4.2,8,4.6,9.9,6.1,10.9z"/>
</svg>
