<?xml version="1.0" encoding="utf-8"?>
<!-- Generator: Adobe Illustrator 24.0.3, SVG Export Plug-In . SVG Version: 6.00 Build 0)  -->
<svg version="1.1" id="Layer_1" xmlns="http://www.w3.org/2000/svg" xmlns:xlink="http://www.w3.org/1999/xlink" x="0px" y="0px"
	 viewBox="0 0 726.8 186" style="enable-background:new 0 0 726.8 186;" xml:space="preserve">
<g>
	<path d="M0,0h62.6c11.6,0,22.3,1.5,32.2,4.6c9.9,3.1,18.4,7.6,25.7,13.6c7.3,6,12.9,13.4,17,22.2c4.1,8.8,6.1,18.9,6.1,30.3
		c0,9.1-1.3,16.8-3.8,23.1c-2.5,6.3-5.4,11.6-8.4,15.8c-3.6,4.7-7.7,8.7-12.2,12l34,59.8h-68l-27.2-46v46H0V0z M56.6,118.3
		c7.1,0,14-0.7,20.7-2.2l25.8,43.5h8.4L84.3,114c9.8-3.4,17.6-8.7,23.4-15.9c5.8-7.2,8.7-16.5,8.7-27.9c0-8-1.5-15-4.6-20.9
		c-3.1-6-7.3-11-12.6-15.1c-5.4-4.1-11.7-7.2-18.9-9.2c-7.3-2.1-15.1-3.1-23.7-3.1H27.2v137.9h7.1v-41.3H56.6z M34.3,111.8V28.3
		h22.3c16.5,0,29.4,3.6,38.8,10.9c9.3,7.3,14,17.6,14,31c0,13.4-4.7,23.7-14,30.9c-9.3,7.2-22.3,10.7-38.8,10.7H34.3z M57.9,89.2h3
		c6.9,0,12.7-1.5,17.5-4.6c4.8-3.1,7.2-8.2,7.2-15.5c0-7.3-2.4-12.4-7.2-15.5C73.7,50.5,67.8,49,60.9,49h-3V89.2z"/>
	<path d="M232.8,186c-11.4,0-21.8-1.5-31-4.4s-17.1-7.3-23.7-13.1c-6.5-5.8-11.6-13.1-15.1-22c-3.5-8.9-5.3-19.3-5.3-31.3V0h57.9
		v112.9c0,6.3,1.3,11.2,3.9,14.6c2.6,3.4,7,5,13.2,5c6.2,0,10.6-1.7,13.2-5c2.6-3.4,3.9-8.2,3.9-14.6V0h58.2v115.3
		c0,12-1.8,22.4-5.3,31.3c-3.5,8.9-8.6,16.2-15.2,22c-6.6,5.8-14.6,10.2-23.8,13.1S244.3,186,232.8,186z M232.8,153.4
		c-27.2,0-40.8-13.3-40.8-40V21.8H185v91.7c0,15.2,4.1,26.9,12.4,35c8.2,8.1,20.1,12.1,35.5,12.1c15.4,0,27.3-4,35.6-12.1
		c8.3-8.1,12.5-19.7,12.5-35V21.8h-7.3v91.7C273.6,140.1,260,153.4,232.8,153.4z"/>
	<path d="M326.4,0h71c9.1,0,17.4,1,24.9,3.1c7.5,2.1,14,5.2,19.3,9.2c5.3,4.1,9.5,9.2,12.5,15.2c3,6.1,4.5,13.2,4.5,21.4
		c0,5.8-0.7,10.7-2.2,14.8c-1.5,4.1-3,7.5-4.6,10.2c-2,3.3-4.3,6-6.8,8.2c4,2.5,7.6,5.8,10.9,9.8c2.7,3.4,5.2,7.8,7.5,13.1
		c2.3,5.3,3.4,11.7,3.4,19.3c0,8.7-1.5,16.6-4.6,23.7c-3.1,7.1-7.5,13.1-13.2,18.1c-5.7,5-12.7,8.8-20.9,11.4
		c-8.3,2.6-17.5,3.9-27.6,3.9h-74V0z M392.8,159.7c16,0,27.7-3.4,35.4-10.3c7.6-6.9,11.4-16,11.4-27.5c0-7.4-1.6-13.4-4.8-17.8
		c-3.2-4.4-6.6-7.9-10.2-10.5c-4.5-2.9-9.5-4.9-15-6c4.4-1.3,8.2-3.3,11.7-6c3.1-2.4,5.8-5.6,8.3-9.7c2.4-4.1,3.7-9.3,3.7-15.6
		c0-11.4-3.6-20-10.9-25.8c-7.3-5.8-17.1-8.7-29.6-8.7h-39.2v137.9H392.8z M360.7,84.3v-56h32.1c11.8,0,20.3,2.6,25.4,7.8
		s7.8,11.9,7.8,20.3c0,8.3-2.6,15.1-7.8,20.3s-13.6,7.8-25.4,7.8H360.7z M360.7,153.1V90.8h31.8c5.6,0,10.8,0.6,15.6,1.8
		c4.8,1.2,9,3,12.6,5.4c3.6,2.4,6.5,5.7,8.6,9.7c2.1,4,3.1,8.7,3.1,14.1c0,11.1-3.7,19-11,23.9s-17,7.3-29,7.3H360.7z M402.6,55.2
		c0-8.3-4.5-12.5-13.6-12.5h-6.5v25h6.5C398,67.7,402.6,63.6,402.6,55.2z M389,138.7c13.8,0,20.7-5.3,20.7-15.8
		c0-10.5-6.9-15.8-20.7-15.8h-6.5v31.6H389z"/>
	<path d="M479,0h61.5v181.4H479V0z M513.3,159.7V21.8h-7.1v137.9H513.3z"/>
	<path d="M559.5,0h58.8v41.9L652.5,0h71l-63.9,83l67.2,98.5h-69.9l-38.6-56v56h-58.8V0z M593.8,159.7v-36.7l28.3-35.1l49.5,71.8h8.4
		l-53-77.5l48.7-60.4h-8.7l-73.2,90.3V21.8h-7.1v137.9H593.8z"/>
</g>
</svg>
